<svg width="520" height="520" viewBox="0 0 520 520" fill="none" xmlns="http://www.w3.org/2000/svg">
  <defs>
    <linearGradient id="bg" x1="60" y1="40" x2="460" y2="500" gradientUnits="userSpaceOnUse">
      <stop stop-color="#38BDF8"/>
      <stop offset="1" stop-color="#6366F1"/>
    </linearGradient>
    <linearGradient id="hair" x1="128" y1="130" x2="390" y2="380" gradientUnits="userSpaceOnUse">
      <stop stop-color="#3B2F2F"/>
      <stop offset="1" stop-color="#1F1729"/>
    </linearGradient>
  </defs>

  <circle cx="260" cy="260" r="232" fill="url(#bg)"/>
  <circle cx="260" cy="260" r="220" stroke="#E2E8F0" stroke-opacity="0.35" stroke-width="2"/>

  <ellipse cx="260" cy="330" rx="128" ry="94" fill="#7DD3FC" fill-opacity="0.32"/>

  <path d="M172 204C172 146 213 109 260 109C307 109 348 146 348 204V224H172V204Z" fill="url(#hair)"/>
  <path d="M165 232C165 160 210 122 260 122C310 122 355 160 355 232V257H165V232Z" fill="url(#hair)"/>

  <ellipse cx="260" cy="240" rx="88" ry="95" fill="#F7D7C4"/>
  <ellipse cx="226" cy="234" rx="8" ry="6" fill="#4B5563"/>
  <ellipse cx="294" cy="234" rx="8" ry="6" fill="#4B5563"/>
  <path d="M238 273C246 281 274 281 282 273" stroke="#C0846B" stroke-width="6" stroke-linecap="round"/>
  <path d="M213 207C221 200 232 198 241 202" stroke="#3F2D2B" stroke-width="6" stroke-linecap="round"/>
  <path d="M279 202C288 198 299 200 307 207" stroke="#3F2D2B" stroke-width="6" stroke-linecap="round"/>

  <path d="M150 410C161 338 204 305 260 305C316 305 359 338 370 410H150Z" fill="#1D4ED8"/>
  <path d="M213 345L260 387L307 345V410H213V345Z" fill="#0EA5E9"/>

  <circle cx="100" cy="132" r="10" fill="#E0F2FE" fill-opacity="0.8"/>
  <circle cx="420" cy="162" r="8" fill="#E0F2FE" fill-opacity="0.8"/>
  <circle cx="404" cy="382" r="12" fill="#E0F2FE" fill-opacity="0.7"/>
</svg>
